<mxfile host="app.diagrams.net" agent="Mozilla/5.0 (Macintosh; Intel Mac OS X 10_15_7) AppleWebKit/537.36 (KHTML, like Gecko) Chrome/131.0.0.0 Safari/537.36" version="26.0.5">
  <diagram name="第 1 页" id="GecP-u3jejHo2s5aGwm_">
    <mxGraphModel dx="1242" dy="758" grid="1" gridSize="10" guides="1" tooltips="1" connect="1" arrows="1" fold="1" page="1" pageScale="1" pageWidth="827" pageHeight="1169" math="0" shadow="0">
      <root>
        <mxCell id="0" />
        <mxCell id="1" parent="0" />
        <mxCell id="smlZlDrzpSeXYvA_w3bu-8" style="edgeStyle=orthogonalEdgeStyle;rounded=0;orthogonalLoop=1;jettySize=auto;html=1;entryX=0;entryY=0.5;entryDx=0;entryDy=0;strokeWidth=2;" edge="1" parent="1" source="smlZlDrzpSeXYvA_w3bu-1" target="smlZlDrzpSeXYvA_w3bu-2">
          <mxGeometry relative="1" as="geometry" />
        </mxCell>
        <mxCell id="smlZlDrzpSeXYvA_w3bu-1" value="起草时审查" style="rounded=1;whiteSpace=wrap;html=1;absoluteArcSize=1;arcSize=14;strokeWidth=2;fillColor=#dae8fc;strokeColor=#6c8ebf;" vertex="1" parent="1">
          <mxGeometry x="140" y="366" width="120" height="40" as="geometry" />
        </mxCell>
        <mxCell id="smlZlDrzpSeXYvA_w3bu-9" style="edgeStyle=orthogonalEdgeStyle;rounded=0;orthogonalLoop=1;jettySize=auto;html=1;entryX=0;entryY=0.5;entryDx=0;entryDy=0;strokeWidth=2;" edge="1" parent="1" source="smlZlDrzpSeXYvA_w3bu-2" target="smlZlDrzpSeXYvA_w3bu-3">
          <mxGeometry relative="1" as="geometry" />
        </mxCell>
        <mxCell id="smlZlDrzpSeXYvA_w3bu-2" value="签署前审查" style="rounded=1;whiteSpace=wrap;html=1;absoluteArcSize=1;arcSize=14;strokeWidth=2;fillColor=#d5e8d4;strokeColor=#82b366;" vertex="1" parent="1">
          <mxGeometry x="293.5" y="366" width="120" height="40" as="geometry" />
        </mxCell>
        <mxCell id="smlZlDrzpSeXYvA_w3bu-3" value="签署后审查" style="rounded=1;whiteSpace=wrap;html=1;absoluteArcSize=1;arcSize=14;strokeWidth=2;fillColor=#fff2cc;strokeColor=#d6b656;" vertex="1" parent="1">
          <mxGeometry x="450" y="366" width="120" height="40" as="geometry" />
        </mxCell>
        <mxCell id="smlZlDrzpSeXYvA_w3bu-4" value="审查阶段" style="text;html=1;align=center;verticalAlign=middle;whiteSpace=wrap;rounded=0;" vertex="1" parent="1">
          <mxGeometry x="327.5" y="300" width="60" height="30" as="geometry" />
        </mxCell>
        <mxCell id="smlZlDrzpSeXYvA_w3bu-7" value="" style="strokeWidth=2;html=1;shape=mxgraph.flowchart.annotation_2;align=left;labelPosition=right;pointerEvents=1;rotation=90;" vertex="1" parent="1">
          <mxGeometry x="337.5" y="192.5" width="40" height="305" as="geometry" />
        </mxCell>
        <mxCell id="smlZlDrzpSeXYvA_w3bu-10" value="侧重审查召回率" style="text;html=1;align=center;verticalAlign=middle;whiteSpace=wrap;rounded=0;strokeWidth=1;fontColor=light-dark(#000000,#EDEDED);" vertex="1" parent="1">
          <mxGeometry x="150" y="420" width="110" height="30" as="geometry" />
        </mxCell>
        <mxCell id="smlZlDrzpSeXYvA_w3bu-12" value="侧重审查关键风险" style="text;html=1;align=center;verticalAlign=middle;whiteSpace=wrap;rounded=0;strokeWidth=1;fontColor=light-dark(#000000,#EDEDED);" vertex="1" parent="1">
          <mxGeometry x="302.5" y="420" width="110" height="30" as="geometry" />
        </mxCell>
        <mxCell id="smlZlDrzpSeXYvA_w3bu-13" value="侧重审查归档" style="text;html=1;align=center;verticalAlign=middle;whiteSpace=wrap;rounded=0;strokeWidth=1;fontColor=light-dark(#000000,#EDEDED);" vertex="1" parent="1">
          <mxGeometry x="455" y="420" width="110" height="30" as="geometry" />
        </mxCell>
      </root>
    </mxGraphModel>
  </diagram>
</mxfile>
